<mxfile host="app.diagrams.net" modified="2024-01-03T08:47:53.563Z" agent="Mozilla/5.0 (X11; Ubuntu; Linux x86_64; rv:121.0) Gecko/20100101 Firefox/121.0" etag="XkBosEz6Bb3BLejRqK-r" version="22.1.16" type="github">
  <diagram name="Page-1" id="54EKtTP29bwLjDvUwinJ">
    <mxGraphModel dx="1946" dy="1207" grid="0" gridSize="10" guides="1" tooltips="1" connect="1" arrows="1" fold="1" page="0" pageScale="1" pageWidth="850" pageHeight="1100" math="0" shadow="0">
      <root>
        <mxCell id="0" />
        <mxCell id="1" parent="0" />
      </root>
    </mxGraphModel>
  </diagram>
</mxfile>
